<svg width="24" height="24" viewBox="0 0 24 24" fill="none" xmlns="http://www.w3.org/2000/svg">
<path d="M12.0001 20.5C13.6642 20.4998 15.281 19.9461 16.5959 18.9261C17.9108 17.9062 18.8491 16.4779 19.2632 14.8662C19.6772 13.2544 19.5435 11.5507 18.883 10.0233C18.2225 8.49588 17.0728 7.2315 15.6149 6.42921C14.157 5.62692 12.4736 5.33229 10.8299 5.5917C9.18614 5.8511 7.67535 6.64982 6.53535 7.8621C5.39535 9.07437 4.69091 10.6314 4.53291 12.2879C4.37492 13.9445 4.77235 15.6066 5.66264 17.0125L4.50014 20.5L7.98764 19.3375C9.18729 20.0989 10.5793 20.5022 12.0001 20.5Z" fill="#D4D6DD" stroke="#D4D6DD" stroke-width="1.66667" stroke-linecap="round" stroke-linejoin="round"/>
</svg>
