<svg width="24" height="24" viewBox="0 0 24 24" fill="none" xmlns="http://www.w3.org/2000/svg">
<path d="M12 23C9.34784 23 6.8043 21.9464 4.92893 20.0711C3.05357 18.1957 2 15.6522 2 13C2 10.3478 3.05357 7.8043 4.92893 5.92893C6.8043 4.05357 9.34784 3 12 3C14.6522 3 17.1957 4.05357 19.0711 5.92893C20.9464 7.8043 22 10.3478 22 13C22 15.6522 20.9464 18.1957 19.0711 20.0711C17.1957 21.9464 14.6522 23 12 23ZM9.88 10.88L6.34 18.66L14.12 15.12L17.66 7.34L9.88 10.88ZM12 14C11.7348 14 11.4804 13.8946 11.2929 13.7071C11.1054 13.5196 11 13.2652 11 13C11 12.7348 11.1054 12.4804 11.2929 12.2929C11.4804 12.1054 11.7348 12 12 12C12.2652 12 12.5196 12.1054 12.7071 12.2929C12.8946 12.4804 13 12.7348 13 13C13 13.2652 12.8946 13.5196 12.7071 13.7071C12.5196 13.8946 12.2652 14 12 14Z" fill="#D4D6DD"/>
</svg>
