<svg width="24" height="24" viewBox="0 0 24 24" fill="none" xmlns="http://www.w3.org/2000/svg">
<path fill-rule="evenodd" clip-rule="evenodd" d="M10.9951 20.8818L10.9851 20.8834L10.926 20.9126L10.9093 20.9159L10.8976 20.9126L10.8385 20.8826C10.8296 20.8804 10.8229 20.8821 10.8185 20.8876L10.8151 20.8959L10.801 21.2526L10.8051 21.2693L10.8135 21.2801L10.9001 21.3418L10.9126 21.3451L10.9226 21.3418L11.0093 21.2801L11.0193 21.2668L11.0226 21.2526L11.0085 20.8968C11.0063 20.8879 11.0018 20.8829 10.9951 20.8818ZM11.2151 20.7876L11.2035 20.7893L11.0501 20.8668L11.0418 20.8751L11.0393 20.8843L11.0543 21.2426L11.0585 21.2526L11.0651 21.2593L11.2326 21.3359C11.2432 21.3387 11.2513 21.3365 11.2568 21.3293L11.2601 21.3176L11.2318 20.8059C11.229 20.7954 11.2235 20.7893 11.2151 20.7876ZM10.6193 20.7893C10.6156 20.7871 10.6112 20.7863 10.6071 20.7873C10.6029 20.7882 10.5992 20.7907 10.5968 20.7943L10.5918 20.8059L10.5635 21.3176C10.564 21.3276 10.5688 21.3343 10.5776 21.3376L10.5901 21.3359L10.7576 21.2584L10.766 21.2518L10.7685 21.2426L10.7835 20.8843L10.781 20.8743L10.7726 20.8659L10.6193 20.7893Z" fill="#D4D6DD"/>
<path fill-rule="evenodd" clip-rule="evenodd" d="M14.6667 4C15.5219 4 16.3444 4.3287 16.964 4.9181C17.5837 5.50751 17.9531 6.31253 17.9958 7.16667L18 7.33333V15.6667C18 16.5219 17.6713 17.3444 17.0819 17.964C16.4925 18.5837 15.6875 18.9531 14.8333 18.9958L14.6667 19H6.33333C5.47813 19 4.65564 18.6713 4.03599 18.0819C3.41634 17.4925 3.04693 16.6875 3.00417 15.8333L3 15.6667V7.33333C3 6.47813 3.3287 5.65564 3.9181 5.03599C4.50751 4.41634 5.31253 4.04693 6.16667 4.00417L6.33333 4H14.6667ZM10.0833 14C9.75181 14 9.43387 14.1317 9.19945 14.3661C8.96503 14.6005 8.83333 14.9185 8.83333 15.25C8.83333 15.5815 8.96503 15.8995 9.19945 16.1339C9.43387 16.3683 9.75181 16.5 10.0833 16.5C10.4149 16.5 10.7328 16.3683 10.9672 16.1339C11.2016 15.8995 11.3333 15.5815 11.3333 15.25C11.3333 14.9185 11.2016 14.6005 10.9672 14.3661C10.7328 14.1317 10.4149 14 10.0833 14ZM10.9167 10.25H7.58333C7.26232 10.2502 6.95367 10.3738 6.72134 10.5953C6.48902 10.8169 6.35082 11.1193 6.3354 11.4399C6.31997 11.7606 6.42849 12.0749 6.63848 12.3177C6.84847 12.5605 7.14382 12.7132 7.46333 12.7442L7.58333 12.75H10.9167C11.2377 12.7498 11.5463 12.6262 11.7787 12.4047C12.011 12.1831 12.1492 11.8807 12.1646 11.5601C12.18 11.2394 12.0715 10.9251 11.8615 10.6823C11.6515 10.4395 11.3562 10.2868 11.0367 10.2558L10.9167 10.25ZM13.4167 6.5H8.41667C8.08515 6.5 7.7672 6.6317 7.53278 6.86612C7.29836 7.10054 7.16667 7.41848 7.16667 7.75C7.16667 8.08152 7.29836 8.39946 7.53278 8.63388C7.7672 8.8683 8.08515 9 8.41667 9H13.4167C13.7482 9 14.0661 8.8683 14.3005 8.63388C14.535 8.39946 14.6667 8.08152 14.6667 7.75C14.6667 7.41848 14.535 7.10054 14.3005 6.86612C14.0661 6.6317 13.7482 6.5 13.4167 6.5Z" fill="#D4D6DD"/>
</svg>
